<svg width="143" height="30" viewBox="0 0 143 30" fill="none" xmlns="http://www.w3.org/2000/svg">
<path d="M137.036 22.32C137.036 23.0133 137.25 23.5067 137.676 23.8C138.13 24.0933 138.756 24.24 139.556 24.24C139.956 24.24 140.37 24.2133 140.796 24.16C141.223 24.08 141.596 23.9867 141.916 23.88C142.156 24.1733 142.356 24.5067 142.516 24.88C142.703 25.2267 142.796 25.6533 142.796 26.16C142.796 27.1733 142.41 28 141.636 28.64C140.89 29.28 139.556 29.6 137.636 29.6C135.29 29.6 133.476 29.0667 132.196 28C130.943 26.9333 130.316 25.2 130.316 22.8V5.68C130.61 5.6 131.023 5.52 131.556 5.44C132.116 5.33333 132.703 5.28 133.316 5.28C134.49 5.28 135.396 5.49333 136.036 5.92C136.703 6.32 137.036 7.18666 137.036 8.52V11.08H142.276C142.436 11.3733 142.583 11.7467 142.716 12.2C142.876 12.6267 142.956 13.1067 142.956 13.64C142.956 14.5733 142.743 15.2533 142.316 15.68C141.916 16.08 141.37 16.28 140.676 16.28H137.036V22.32Z" fill="black"/>
<path d="M119.236 16.68C119.236 15.8533 118.996 15.2533 118.516 14.88C118.063 14.48 117.436 14.28 116.636 14.28C116.103 14.28 115.569 14.3467 115.036 14.48C114.529 14.6133 114.089 14.8133 113.716 15.08V28.96C113.449 29.04 113.023 29.12 112.436 29.2C111.876 29.28 111.289 29.32 110.676 29.32C110.089 29.32 109.556 29.28 109.076 29.2C108.623 29.12 108.236 28.96 107.916 28.72C107.596 28.48 107.343 28.16 107.156 27.76C106.996 27.3333 106.916 26.7867 106.916 26.12V14.12C106.916 13.4 107.063 12.8133 107.356 12.36C107.676 11.9067 108.103 11.4933 108.636 11.12C109.543 10.48 110.676 9.96 112.036 9.56C113.423 9.16 114.956 8.96 116.636 8.96C119.649 8.96 121.969 9.62667 123.596 10.96C125.223 12.2667 126.036 14.0933 126.036 16.44V28.96C125.769 29.04 125.343 29.12 124.756 29.2C124.196 29.28 123.609 29.32 122.996 29.32C122.409 29.32 121.876 29.28 121.396 29.2C120.943 29.12 120.556 28.96 120.236 28.72C119.916 28.48 119.663 28.16 119.476 27.76C119.316 27.3333 119.236 26.7867 119.236 26.12V16.68Z" fill="black"/>
<path d="M95.4669 4.16C95.4669 3.14666 95.8002 2.29333 96.4669 1.6C97.1602 0.906663 98.0669 0.559998 99.1869 0.559998C100.307 0.559998 101.2 0.906663 101.867 1.6C102.56 2.29333 102.907 3.14666 102.907 4.16C102.907 5.17333 102.56 6.02666 101.867 6.72C101.2 7.41333 100.307 7.76 99.1869 7.76C98.0669 7.76 97.1602 7.41333 96.4669 6.72C95.8002 6.02666 95.4669 5.17333 95.4669 4.16ZM102.587 28.96C102.294 29.0133 101.854 29.08 101.267 29.16C100.707 29.2667 100.134 29.32 99.5469 29.32C98.9602 29.32 98.4269 29.28 97.9469 29.2C97.4935 29.12 97.1069 28.96 96.7869 28.72C96.4669 28.48 96.2135 28.16 96.0269 27.76C95.8669 27.3333 95.7869 26.7867 95.7869 26.12V9.84C96.0802 9.78666 96.5069 9.72 97.0669 9.64C97.6535 9.53333 98.2402 9.48 98.8269 9.48C99.4135 9.48 99.9335 9.52 100.387 9.6C100.867 9.68 101.267 9.84 101.587 10.08C101.907 10.32 102.147 10.6533 102.307 11.08C102.494 11.48 102.587 12.0133 102.587 12.68V28.96Z" fill="black"/>
<path d="M82.1891 24.68C82.6424 24.68 83.1357 24.64 83.6691 24.56C84.2291 24.4533 84.6424 24.32 84.9091 24.16V20.96L82.0291 21.2C81.2824 21.2533 80.6691 21.4133 80.1891 21.68C79.7091 21.9467 79.4691 22.3467 79.4691 22.88C79.4691 23.4133 79.6691 23.8533 80.0691 24.2C80.4957 24.52 81.2024 24.68 82.1891 24.68ZM81.8691 8.96C83.3091 8.96 84.6157 9.10667 85.7891 9.4C86.9891 9.69333 88.0024 10.1467 88.8291 10.76C89.6824 11.3467 90.3357 12.1067 90.7891 13.04C91.2424 13.9467 91.4691 15.0267 91.4691 16.28V25.24C91.4691 25.9333 91.2691 26.5067 90.8691 26.96C90.4957 27.3867 90.0424 27.76 89.5091 28.08C87.7757 29.12 85.3357 29.64 82.1891 29.64C80.7757 29.64 79.4957 29.5067 78.3491 29.24C77.2291 28.9733 76.2557 28.5733 75.4291 28.04C74.6291 27.5067 74.0024 26.8267 73.5491 26C73.1224 25.1733 72.9091 24.2133 72.9091 23.12C72.9091 21.28 73.4557 19.8667 74.5491 18.88C75.6424 17.8933 77.3357 17.28 79.6291 17.04L84.8691 16.48V16.2C84.8691 15.4267 84.5224 14.88 83.8291 14.56C83.1624 14.2133 82.1891 14.04 80.9091 14.04C79.8957 14.04 78.9091 14.1467 77.9491 14.36C76.9891 14.5733 76.1224 14.84 75.3491 15.16C75.0024 14.92 74.7091 14.56 74.4691 14.08C74.2291 13.5733 74.1091 13.0533 74.1091 12.52C74.1091 11.8267 74.2691 11.28 74.5891 10.88C74.9357 10.4533 75.4557 10.0933 76.1491 9.8C76.9224 9.50667 77.8291 9.29333 78.8691 9.16C79.9357 9.02667 80.9357 8.96 81.8691 8.96Z" fill="black"/>
<path d="M60.6175 16C61.7375 16 62.5908 15.7467 63.1775 15.24C63.7908 14.7067 64.0975 13.9067 64.0975 12.84C64.0975 11.8267 63.7775 11.0533 63.1375 10.52C62.5242 9.96 61.6175 9.68 60.4175 9.68C59.9908 9.68 59.6308 9.69333 59.3375 9.72C59.0708 9.72 58.7908 9.74667 58.4975 9.8V16H60.6175ZM58.5375 28.84C58.2442 28.92 57.7775 29 57.1375 29.08C56.5242 29.16 55.9108 29.2 55.2975 29.2C54.6842 29.2 54.1375 29.1467 53.6575 29.04C53.2042 28.96 52.8175 28.8 52.4975 28.56C52.1775 28.32 51.9375 27.9867 51.7775 27.56C51.6175 27.1333 51.5375 26.5733 51.5375 25.88V7.04C51.5375 6.48 51.6842 6.05333 51.9775 5.76C52.2975 5.44 52.7242 5.18667 53.2575 5C54.1642 4.68 55.1908 4.45333 56.3375 4.32C57.5108 4.16 58.6842 4.08 59.8575 4.08C63.5375 4.08 66.3508 4.86666 68.2975 6.44C70.2442 8.01333 71.2175 10.1467 71.2175 12.84C71.2175 14.1467 71.0042 15.3333 70.5775 16.4C70.1775 17.44 69.5642 18.3467 68.7375 19.12C67.9375 19.8667 66.9108 20.4533 65.6575 20.88C64.4308 21.28 63.0042 21.48 61.3775 21.48H58.5375V28.84Z" fill="black"/>
<path d="M34.1225 21.16V28.84C33.8292 28.92 33.3625 29 32.7225 29.08C32.1092 29.16 31.4958 29.2 30.8825 29.2C30.2692 29.2 29.7225 29.1467 29.2425 29.04C28.7892 28.96 28.4025 28.8 28.0825 28.56C27.7892 28.32 27.5625 27.9867 27.4025 27.56C27.2425 27.1333 27.1625 26.5733 27.1625 25.88V7.04C27.1625 6.48 27.3092 6.05333 27.6025 5.76C27.9225 5.44 28.3492 5.18667 28.8825 5C29.7892 4.68 30.8425 4.45333 32.0425 4.32C33.2425 4.16 34.5225 4.08 35.8825 4.08C39.5625 4.08 42.3358 4.85333 44.2025 6.4C46.0692 7.94667 47.0025 10.04 47.0025 12.68C47.0025 14.3333 46.5758 15.7467 45.7225 16.92C44.8692 18.0933 43.8558 19 42.6825 19.64C43.6425 20.9467 44.5892 22.1733 45.5225 23.32C46.4558 24.4667 47.1892 25.5067 47.7225 26.44C47.4558 27.3733 46.9625 28.0933 46.2425 28.6C45.5492 29.08 44.7625 29.32 43.8825 29.32C43.2958 29.32 42.7892 29.2533 42.3625 29.12C41.9358 28.9867 41.5625 28.8 41.2425 28.56C40.9225 28.32 40.6292 28.0267 40.3625 27.68C40.0958 27.3333 39.8425 26.96 39.6025 26.56L36.2425 21.16H34.1225ZM36.6425 15.84C37.6558 15.84 38.4558 15.5867 39.0425 15.08C39.6292 14.5467 39.9225 13.7733 39.9225 12.76C39.9225 11.7467 39.5892 10.9867 38.9225 10.48C38.2825 9.94667 37.2558 9.68 35.8425 9.68C35.4425 9.68 35.1225 9.69333 34.8825 9.72C34.6425 9.74667 34.3758 9.78666 34.0825 9.84V15.84H36.6425Z" fill="black"/>
<path d="M22.08 20.04C22.08 21.48 21.8267 22.8 21.32 24C20.84 25.1733 20.1333 26.1867 19.2 27.04C18.2667 27.8667 17.1333 28.5067 15.8 28.96C14.4667 29.4133 12.96 29.64 11.28 29.64C9.6 29.64 8.09333 29.4133 6.76 28.96C5.42666 28.5067 4.29333 27.8667 3.36 27.04C2.42666 26.1867 1.70666 25.1733 1.2 24C0.719996 22.8 0.479996 21.48 0.479996 20.04V4.76C0.773329 4.70667 1.24 4.64 1.88 4.56C2.52 4.45333 3.13333 4.4 3.72 4.4C4.33333 4.4 4.86666 4.45333 5.32 4.56C5.8 4.64 6.2 4.8 6.52 5.04C6.84 5.28 7.08 5.61334 7.24 6.04C7.4 6.46667 7.48 7.02667 7.48 7.72V19.92C7.48 21.2 7.82666 22.2 8.52 22.92C9.24 23.64 10.16 24 11.28 24C12.4267 24 13.3467 23.64 14.04 22.92C14.7333 22.2 15.08 21.2 15.08 19.92V4.76C15.3733 4.70667 15.84 4.64 16.48 4.56C17.12 4.45333 17.7333 4.4 18.32 4.4C18.9333 4.4 19.4667 4.45333 19.92 4.56C20.4 4.64 20.8 4.8 21.12 5.04C21.44 5.28 21.68 5.61334 21.84 6.04C22 6.46667 22.08 7.02667 22.08 7.72V20.04Z" fill="black"/>
</svg>
